<?xml version="1.0" encoding="UTF-8"?>
<svg width="32px" height="22px" viewBox="0 0 32 22" version="1.1" xmlns="http://www.w3.org/2000/svg" xmlns:xlink="http://www.w3.org/1999/xlink">
    <!-- Generator: Sketch 50.2 (55047) - http://www.bohemiancoding.com/sketch -->
    <title>001-massage-3</title>
    <desc>Created with Sketch.</desc>
    <defs></defs>
    <g id="Page-1" stroke="none" stroke-width="1" fill="none" fill-rule="evenodd">
        <g id="Home" transform="translate(-237.000000, -644.000000)" fill="#748E7A">
            <g id="Facials" transform="translate(220.000000, 622.000000)">
                <g id="001-massage-3" transform="translate(17.000000, 22.000000)">
                    <g id="Shape">
                        <path d="M31.9690625,19.3876714 C31.8469375,18.9632521 31.402125,18.7255524 30.98025,18.8393541 L25.736,20.333796 L21.24375,17.3475921 C21.1125625,17.2604023 20.957875,17.2135977 20.8,17.2135977 L2.4,17.2135977 C1.957875,17.2135977 1.6,17.5704589 1.6,18.0113314 C1.6,18.452204 1.957875,18.8090652 2.4,18.8090652 L20.5573125,18.8090652 L25.1556875,21.8660057 C25.2885,21.9543173 25.443125,22 25.5994375,22 C25.6730625,22 25.7471875,21.9899037 25.8191875,21.969711 L31.4191875,20.3742436 C31.84425,20.2524023 32.090125,19.8109688 31.9690625,19.3876714 Z" fill-rule="nonzero"></path>
                        <path d="M26.3994375,10.8316657 C24.194125,10.8316657 22.3994375,12.6207082 22.3994375,14.8203343 C22.3994375,17.0193994 24.194125,18.8090028 26.3994375,18.8090028 C28.6053125,18.8090028 30.3994375,17.0193994 30.3994375,14.8203343 C30.3994375,12.6207705 28.6053125,10.8316657 26.3994375,10.8316657 Z M26.3994375,17.2135354 C25.074125,17.2135354 23.9994375,16.1418924 23.9994375,14.8203343 C23.9994375,13.4987762 25.074125,12.4271331 26.3994375,12.4271331 C27.72475,12.4271331 28.7994375,13.4987762 28.7994375,14.8203343 C28.7995,16.1419547 27.7248125,17.2135354 26.3994375,17.2135354 Z" fill-rule="nonzero"></path>
                        <path d="M13.6,0.0622606232 C11.3946875,0.0622606232 9.6,1.85130312 9.6,4.05092918 C9.6,6.25055524 11.394125,8.03959773 13.6,8.03959773 C15.805875,8.03959773 17.6,6.24999433 17.6,4.05092918 C17.6,1.85136544 15.805875,0.0622606232 13.6,0.0622606232 Z M13.6,6.44413031 C12.2746875,6.44413031 11.2,5.37248725 11.2,4.05092918 C11.2,2.7293711 12.274125,1.65772805 13.6,1.65772805 C14.9253125,1.65772805 16,2.7293711 16,4.05092918 C16,5.37248725 14.9253125,6.44413031 13.6,6.44413031 Z" fill-rule="nonzero"></path>
                        <path d="M18.0111875,12.5409972 L10.0111875,7.7545949 C9.81975,7.6407932 9.5888125,7.60832295 9.376,7.67270255 C9.162125,7.73490085 8.984,7.88329178 8.88375,8.08166572 L5.68375,14.4635354 C5.4864375,14.8576034 5.6469375,15.3368045 6.042125,15.534119 C6.1568125,15.5910198 6.2789375,15.6181303 6.3989375,15.6181303 C6.6928125,15.6181303 6.9749375,15.4569632 7.1151875,15.1772578 L9.9285,9.56601133 L17.1876875,13.9088612 C17.5674375,14.1354051 18.0580625,14.0131275 18.2853125,13.6355127 C18.5125625,13.257898 18.389875,12.7675411 18.0111875,12.5409972 Z" fill-rule="nonzero"></path>
                        <path d="M20.8,20.4044703 L0.8,20.4044703 C0.357875,20.4044703 0,20.7613314 0,21.202204 C0,21.6430765 0.357875,21.9999377 0.8,21.9999377 L20.8,21.9999377 C21.242125,21.9999377 21.6,21.6430765 21.6,21.202204 C21.6,20.7613314 21.242125,20.4044703 20.8,20.4044703 Z" fill-rule="nonzero"></path>
                    </g>
                </g>
            </g>
        </g>
    </g>
</svg>