<?xml version="1.0" encoding="UTF-8"?>
<svg width="16px" height="16px" viewBox="0 0 16 16" version="1.1" xmlns="http://www.w3.org/2000/svg" xmlns:xlink="http://www.w3.org/1999/xlink">
    <!-- Generator: Sketch 50.2 (55047) - http://www.bohemiancoding.com/sketch -->
    <title>Shape</title>
    <desc>Created with Sketch.</desc>
    <defs></defs>
    <g id="Symbols" stroke="none" stroke-width="1" fill="none" fill-rule="evenodd">
        <g id="Footer" transform="translate(-1362.000000, -386.000000)" fill="#ACACAC" fill-rule="nonzero">
            <g id="Group-5-Copy-2">
                <g transform="translate(220.000000, 168.000000)">
                    <path d="M1149.924,219.441333 C1152.03867,219.441333 1152.292,219.449333 1153.128,219.489333 C1155.27333,219.586667 1156.276,220.616 1156.376,222.768 C1156.41467,223.610667 1156.42133,223.865333 1156.42133,226 C1156.42133,228.138667 1156.41333,228.390667 1156.37467,229.233333 C1156.276,231.382667 1155.276,232.414667 1153.12667,232.513333 C1152.29067,232.552 1152.04133,232.558667 1149.92267,232.558667 C1147.808,232.558667 1147.556,232.552 1146.72133,232.512 C1144.568,232.414667 1143.57067,231.38 1143.472,229.232 C1143.436,228.389333 1143.428,228.138667 1143.428,226 C1143.428,223.864 1143.436,223.610667 1143.47333,222.766667 C1143.572,220.616 1144.57333,219.586667 1146.72267,219.488 C1147.55867,219.449333 1147.80933,219.441333 1149.924,219.441333 Z M1149.924,218 C1147.772,218 1147.50267,218.009333 1146.65733,218.048 C1143.78,218.181333 1142.18,219.793333 1142.048,222.701333 C1142.008,223.554667 1142,223.828 1142,226 C1142,228.173333 1142.00933,228.445333 1142.048,229.3 C1142.18,232.204 1143.776,233.82 1146.65733,233.952 C1147.50267,233.990667 1147.772,234 1149.924,234 C1152.07867,234 1152.34667,233.990667 1153.19333,233.952 C1156.068,233.818667 1157.66933,232.206667 1157.80267,229.3 C1157.83867,228.445333 1157.84933,228.172 1157.84933,226 C1157.84933,223.826667 1157.83867,223.556 1157.80267,222.701333 C1157.672,219.8 1156.07333,218.181333 1153.19333,218.048 C1152.34667,218.010667 1152.07867,218 1149.924,218 Z M1149.924,221.892 C1147.67867,221.892 1145.85467,223.732 1145.85467,226 C1145.85467,228.269333 1147.67733,230.109333 1149.924,230.109333 C1152.172,230.109333 1153.992,228.269333 1153.992,226 C1153.992,223.730667 1152.172,221.892 1149.924,221.892 Z M1149.924,228.666667 C1148.45867,228.658667 1147.27733,227.466667 1147.284,226 C1147.284,224.528 1148.46533,223.333333 1149.924,223.333333 C1151.388,223.338667 1152.57333,224.532 1152.568,225.997333 C1152.568,225.997333 1152.568,225.998667 1152.568,226 C1152.568,227.473333 1151.38267,228.666667 1149.924,228.666667 Z M1154.15333,220.770667 C1153.628,220.773333 1153.2,221.202667 1153.20267,221.730667 C1153.20267,222.26 1153.62933,222.690667 1154.15333,222.690667 C1154.68267,222.689333 1155.10667,222.258667 1155.104,221.732 C1155.104,221.732 1155.104,221.732 1155.104,221.730667 C1155.10933,221.202667 1154.68267,220.773333 1154.156,220.770667 L1154.15333,220.770667 Z" id="Shape"></path>
                </g>
            </g>
        </g>
    </g>
</svg>