<?xml version="1.0" encoding="UTF-8"?>
<svg width="30px" height="30px" viewBox="0 0 30 30" version="1.1" xmlns="http://www.w3.org/2000/svg" xmlns:xlink="http://www.w3.org/1999/xlink">
    <!-- Generator: Sketch 50.2 (55047) - http://www.bohemiancoding.com/sketch -->
    <title>003-massage-1 copy</title>
    <desc>Created with Sketch.</desc>
    <defs></defs>
    <g id="Page-1" stroke="none" stroke-width="1" fill="none" fill-rule="evenodd">
        <g id="Home" transform="translate(-648.000000, -640.000000)" fill="#748E7A">
            <g id="Waxing" transform="translate(631.000000, 622.000000)">
                <g id="003-massage-1" transform="translate(17.000000, 18.000000)">
                    <g id="Shape">
                        <path d="M20.182,14.3535 L19.475,13.6465 C18.1769375,14.947 18.1769375,17.053 19.475,18.3535 L20.182,17.6465 C19.2740625,16.7365625 19.2740625,15.263375 20.182,14.3535 Z" fill-rule="nonzero"></path>
                        <path d="M17.8535,14.3535 L17.1465,13.6465 C15.8484375,14.947 15.8484375,17.053 17.1465,18.3535 L17.8535,17.6465 C16.9460625,16.736375 16.9460625,15.263625 17.8535,14.3535 Z" fill-rule="nonzero"></path>
                        <path d="M25.5,25.0255 L25.5,19.6 C26.176375,18.7105625 26.529125,17.617 26.5,16.5 C26.5,14.257 25.292,12.5 23.75,12.5 C22.208,12.5 21,14.257 21,16.5 C21,18.04 21.5805,19.4 22.5,20.0695 L22.5,25 L19,25 L19,20.44 C19.1615,20.3235 19.322,20.205 19.479,20.08 L18.8555,19.3 C18.1870625,19.8354375 17.45825,20.290875 16.684,20.657 C15.6176875,21.1600625 14.3823125,21.1600625 13.316,20.657 C9.7850625,18.9806875 7.402375,15.56375 7.05,11.671 C9.7323125,11.2426875 12.3306875,10.3955 14.75,9.1605 C17.4611875,10.548875 20.396875,11.4460625 23.421,11.8105 C23.6951875,11.8435625 23.9441875,11.6480625 23.97725,11.3739375 C23.9789375,11.36 23.98,11.3460625 23.9805,11.332 L24,9 C24,4.0294375 19.9705625,0 15,0 C10.0294375,0 6,4.0294375 6,9 L6,10.7 C6.012,14.558375 7.870875,18.177625 11,20.435 L11,25 L5,25 C2.2398125,25.003 0.0030625,27.2398125 0,30 L1,30 C1.0025,27.791875 2.791875,26.0025 5,26 L11.5,26 C11.776125,26 12,25.776125 12,25.5 L12,21.089 C12.2895,21.2565 12.5845,21.416 12.8905,21.56 C14.226125,22.1906875 15.773875,22.1906875 17.1095,21.56 C17.4095,21.4175 17.7095,21.2565 18,21.0865 L18,25.5 C18,25.776125 18.223875,26 18.5,26 L22.592,26 C22.8639375,26.777875 23.7149375,27.188 24.4928125,26.9160625 C24.9145,26.768625 25.248,26.44 25.4015,26.0205 C27.4435625,26.2288125 28.9975625,27.9473125 29,30 L30,30 C29.99675,27.4335 28.0533125,25.285125 25.5,25.0255 Z M21.439,4.2695 C22.452875,5.6383125 23.0000625,7.296625 23,9 L23,10.684 L23,10.7445 C20.5124375,10.3905625 18.0931875,9.6600625 15.8255,8.578 C17.8205,7.444 19.6549375,6.0483125 21.28,4.428 L21.439,4.2695 Z M7,9 C7.00525,4.583875 10.583875,1.00525 15,1 C17.192875,1.00075 19.2885625,1.9050625 20.7935,3.5 L20.571,3.722 C16.88075,7.3933125 12.136375,9.820875 7,10.666 L7,9 Z M24.6395,19.0635 C24.550125,19.1565 24.500125,19.2805 24.5,19.4095 L24.5,25.5 C24.5,25.776125 24.276125,26 24,26 C23.723875,26 23.5,25.776125 23.5,25.5 L23.5,19.7965 C23.5,19.6141875 23.40075,19.446375 23.241,19.3585 C22.5105,18.956 22,17.7805 22,16.5 C22,14.874 22.8,13.5 23.75,13.5 C24.7,13.5 25.5,14.874 25.5,16.5 C25.539625,17.4314375 25.2330625,18.3445625 24.6395,19.0635 Z" fill-rule="nonzero"></path>
                        <path d="M13.3535,27.1465 C13.25975,27.05275 13.132625,27 13,27 L8.5,27 L8.5,28 L12.793,28 L13.6465,28.8535 L14.3535,28.1465 L13.3535,27.1465 Z" fill-rule="nonzero"></path>
                        <path d="M17,27 C16.867375,27 16.74025,27.05275 16.6465,27.1465 L15.6465,28.1465 L16.3535,28.8535 L17.207,28 L21.5,28 L21.5,27 L17,27 Z" fill-rule="nonzero"></path>
                        <path d="M28.197,13.6465 L27.4895,14.3535 C28.3974375,15.263375 28.3974375,16.7365625 27.4895,17.6465 L28.197,18.3535 C29.4945,17.05275 29.4945,14.94725 28.197,13.6465 Z" fill-rule="nonzero"></path>
                    </g>
                </g>
            </g>
        </g>
    </g>
</svg>