<svg xmlns="http://www.w3.org/2000/svg" width="512" height="512" viewBox="0 0 512 512">
    <g fill="#748E7A" fill-rule="nonzero">
        <path d="M418.006 217.028V109.854c14.707-3.798 25.6-17.175 25.6-33.054 0-18.199-14.31-33.11-32.271-34.081l6.503-32.514A8.525 8.525 0 0 0 409.475 0h-102.4a8.544 8.544 0 0 0-6.605 3.123 8.58 8.58 0 0 0-1.766 7.083l6.503 32.514c-17.96.972-32.267 15.882-32.267 34.08 0 15.879 10.893 29.256 25.6 33.054v107.175c-16.17 6.846-30.776 16.351-43.4 27.861l.362-5.555c1.297-27.068-8.294-52.779-26.999-72.388-17.651-18.513-41.122-29.172-66.496-30.307v-17.173a8.53 8.53 0 0 0 8.533-8.533V42.667c0-14.114-11.486-25.6-25.6-25.6h-34.133c-14.114 0-25.6 11.486-25.6 25.6v68.267a8.53 8.53 0 0 0 8.533 8.533v17.173c-25.374 1.135-48.845 11.794-66.505 30.307C8.538 186.557-1.053 212.268.244 239.489l15.155 231.876C16.483 494.148 35.205 512 58.023 512h139.699c22.818 0 41.54-17.852 42.615-40.491l.897-13.756C269.432 490.918 311.434 512 358.273 512c84.693 0 153.6-68.907 153.6-153.6 0-61.431-37.487-117.504-93.867-141.372zM399.064 17.067l-5.12 25.6h-71.347l-5.12-25.6h81.587zM290.006 76.8c0-9.412 7.654-17.067 17.067-17.067h102.4c9.412 0 17.067 7.654 17.067 17.067 0 9.412-7.654 17.067-17.067 17.067h-102.4c-9.413 0-17.067-7.655-17.067-17.067zM102.273 42.667c0-4.702 3.823-8.533 8.533-8.533h34.133c4.71 0 8.533 3.831 8.533 8.533V102.4h-51.2V42.667h.001zm42.666 76.8v17.067h-34.133v-17.067h34.133zm78.358 351.087c-.648 13.67-11.887 24.38-25.574 24.38h-139.7c-13.696 0-24.926-10.709-25.583-24.533L17.285 238.524c-1.067-22.357 6.861-43.597 22.306-59.802S75.883 153.6 98.266 153.6h59.212c22.383 0 43.23 8.917 58.675 25.122s23.364 37.444 22.306 59.648l-1.728 26.516c-20.279 26.338-32.06 59.082-32.06 93.514 0 28.153 7.621 54.556 20.898 77.269l-2.272 34.885zm134.976 24.379c-49.006 0-92.06-25.962-116.149-64.848a8.58 8.58 0 0 0-1.273-2.099c-12.131-20.391-19.111-44.188-19.111-69.587 0-56.354 35.507-107.639 88.354-127.616a8.537 8.537 0 0 0 5.513-7.979V110.933h85.333v111.872a8.538 8.538 0 0 0 5.513 7.979c52.847 19.977 88.354 71.262 88.354 127.616-.001 75.281-61.253 136.533-136.534 136.533z"/>
        <path d="M127.873 196.267c-33.493 0-59.733 37.487-59.733 85.333s26.24 85.333 59.733 85.333c33.493 0 59.733-37.487 59.733-85.333s-26.24-85.333-59.733-85.333zm0 153.6c-23.125 0-42.667-31.266-42.667-68.267s19.541-68.267 42.667-68.267 42.667 31.266 42.667 68.267c-.001 37.001-19.542 68.267-42.667 68.267zM435.073 273.067a8.53 8.53 0 0 0-8.533-8.533c-29.7 0-55.495 16.958-68.267 41.685-12.772-24.728-38.567-41.685-68.267-41.685a8.53 8.53 0 0 0-8.533 8.533c0 39.458 29.919 72.054 68.267 76.315v29.089c-14.09-17.429-35.626-28.604-59.733-28.604a8.53 8.53 0 0 0-8.533 8.533c0 39.458 29.919 72.054 68.267 76.315V460.8a8.53 8.53 0 0 0 8.533 8.533 8.53 8.53 0 0 0 8.533-8.533v-26.086c38.347-4.26 68.267-36.857 68.267-76.315a8.53 8.53 0 0 0-8.533-8.533c-24.108 0-45.643 11.175-59.733 28.604v-29.089c38.345-4.26 68.265-36.857 68.265-76.314zm-17.784 9.25c-3.985 25.549-24.218 45.781-49.766 49.766 3.985-25.549 24.217-45.781 49.766-49.766zm-118.033 0c25.549 3.985 45.781 24.218 49.766 49.766-25.548-3.985-45.781-24.217-49.766-49.766zm0 85.333c25.549 3.985 45.781 24.218 49.766 49.766-25.548-3.984-45.781-24.217-49.766-49.766zm118.033 0c-3.985 25.549-24.218 45.781-49.766 49.766 3.985-25.548 24.217-45.781 49.766-49.766zM179.073 384h-102.4a8.53 8.53 0 0 0-8.533 8.533 8.53 8.53 0 0 0 8.533 8.533h102.4a8.53 8.53 0 0 0 8.533-8.533 8.531 8.531 0 0 0-8.533-8.533zM179.073 418.133h-102.4a8.53 8.53 0 0 0-8.533 8.533 8.53 8.53 0 0 0 8.533 8.533h102.4a8.53 8.53 0 0 0 8.533-8.533 8.531 8.531 0 0 0-8.533-8.533z"/>
    </g>
</svg>
